<svg width="191" height="53" viewBox="0 0 191 53" fill="none" xmlns="http://www.w3.org/2000/svg">
<path d="M61.465 34.66H52.295L50.825 39H44.56L53.45 14.43H60.38L69.27 39H62.935L61.465 34.66ZM59.925 30.04L56.88 21.045L53.87 30.04H59.925ZM76.5257 17.44C75.4757 17.44 74.6123 17.1367 73.9357 16.53C73.2823 15.9 72.9557 15.13 72.9557 14.22C72.9557 13.2867 73.2823 12.5167 73.9357 11.91C74.6123 11.28 75.4757 10.965 76.5257 10.965C77.5523 10.965 78.3923 11.28 79.0457 11.91C79.7223 12.5167 80.0607 13.2867 80.0607 14.22C80.0607 15.13 79.7223 15.9 79.0457 16.53C78.3923 17.1367 77.5523 17.44 76.5257 17.44ZM79.5357 41.52C79.5357 43.9233 78.929 45.65 77.7157 46.7C76.5023 47.7733 74.8107 48.31 72.6407 48.31H70.2957V43.235H71.7307C72.384 43.235 72.8507 43.1067 73.1307 42.85C73.4107 42.5933 73.5507 42.1733 73.5507 41.59V19.47H79.5357V41.52ZM88.4238 17.44C87.3738 17.44 86.5104 17.1367 85.8338 16.53C85.1804 15.9 84.8538 15.13 84.8538 14.22C84.8538 13.2867 85.1804 12.5167 85.8338 11.91C86.5104 11.28 87.3738 10.965 88.4238 10.965C89.4504 10.965 90.2904 11.28 90.9438 11.91C91.6204 12.5167 91.9588 13.2867 91.9588 14.22C91.9588 15.13 91.6204 15.9 90.9438 16.53C90.2904 17.1367 89.4504 17.44 88.4238 17.44ZM91.3988 19.47V39H85.4138V19.47H91.3988ZM109.211 19.26C111.498 19.26 113.318 20.0067 114.671 21.5C116.048 22.97 116.736 25 116.736 27.59V39H110.786V28.395C110.786 27.0883 110.448 26.0733 109.771 25.35C109.094 24.6267 108.184 24.265 107.041 24.265C105.898 24.265 104.988 24.6267 104.311 25.35C103.634 26.0733 103.296 27.0883 103.296 28.395V39H97.311V19.47H103.296V22.06C103.903 21.1967 104.719 20.52 105.746 20.03C106.773 19.5167 107.928 19.26 109.211 19.26ZM134.405 39L128.455 30.81V39H122.47V13.1H128.455V27.415L134.37 19.47H141.755L133.635 29.27L141.825 39H134.405ZM165.631 19.47L153.381 48.275H146.941L151.421 38.335L143.476 19.47H150.161L154.676 31.685L159.156 19.47H165.631ZM168.18 29.2C168.18 27.1933 168.553 25.4317 169.3 23.915C170.07 22.3983 171.108 21.2317 172.415 20.415C173.722 19.5983 175.18 19.19 176.79 19.19C178.167 19.19 179.368 19.47 180.395 20.03C181.445 20.59 182.25 21.325 182.81 22.235V19.47H188.795V39H182.81V36.235C182.227 37.145 181.41 37.88 180.36 38.44C179.333 39 178.132 39.28 176.755 39.28C175.168 39.28 173.722 38.8717 172.415 38.055C171.108 37.215 170.07 36.0367 169.3 34.52C168.553 32.98 168.18 31.2067 168.18 29.2ZM182.81 29.235C182.81 27.7417 182.39 26.5633 181.55 25.7C180.733 24.8367 179.73 24.405 178.54 24.405C177.35 24.405 176.335 24.8367 175.495 25.7C174.678 26.54 174.27 27.7067 174.27 29.2C174.27 30.6933 174.678 31.8833 175.495 32.77C176.335 33.6333 177.35 34.065 178.54 34.065C179.73 34.065 180.733 33.6333 181.55 32.77C182.39 31.9067 182.81 30.7283 182.81 29.235Z" fill="black"/>
<path d="M5.58242 45.0607H22.4176C23.8981 45.0607 25.318 44.4725 26.3649 43.4256C27.4119 42.3787 28 40.9588 28 39.4783V16.3022H22.4176V39.4783H0C0 40.9588 0.588148 42.3787 1.63505 43.4256C2.68196 44.4725 4.10187 45.0607 5.58242 45.0607Z" fill="black"/>
<path d="M22.4176 6H5.58242C4.10187 6 2.68196 6.58815 1.63505 7.63505C0.588148 8.68196 0 10.1019 0 11.5824V34.7584H5.58242V11.5824H28C28 10.1019 27.4119 8.68196 26.3649 7.63505C25.318 6.58815 23.8981 6 22.4176 6Z" fill="black"/>
</svg>
